<?xml version="1.0" standalone="no"?>
<!DOCTYPE svg PUBLIC "-//W3C//DTD SVG 20010904//EN"
 "http://www.w3.org/TR/2001/REC-SVG-20010904/DTD/svg10.dtd">
<svg version="1.0" xmlns="http://www.w3.org/2000/svg"
 width="534.000000pt" height="931.000000pt" viewBox="0 0 534.000000 931.000000"
 preserveAspectRatio="xMidYMid meet">

<g transform="translate(0.000000,931.000000) scale(0.100000,-0.100000)"
fill="#000000" stroke="none">
<path d="M2561 5887 c-55 -19 -72 -31 -128 -94 -55 -61 -73 -74 -125 -92 -64
-22 -189 -95 -243 -142 -17 -16 -40 -47 -50 -71 -11 -24 -29 -56 -42 -71 -13
-16 -23 -39 -23 -53 0 -39 -92 -168 -140 -197 -14 -8 -52 -44 -86 -79 l-60
-63 -28 -165 c-15 -91 -32 -173 -37 -182 -5 -9 -9 -53 -9 -98 0 -68 4 -86 24
-118 13 -20 26 -59 30 -85 4 -30 34 -108 81 -206 43 -90 75 -170 75 -187 0
-92 11 -122 64 -174 58 -57 214 -176 280 -215 l45 -26 78 14 c77 15 80 15 247
-19 144 -29 181 -33 252 -28 l83 7 40 -35 c36 -31 50 -36 112 -41 69 -6 74 -5
167 39 53 24 98 46 100 49 2 2 10 29 17 60 l13 55 -108 0 -108 0 -21 88 c-12
48 -24 95 -27 105 -5 16 7 17 149 17 l154 0 -14 -86 c-7 -48 -12 -88 -10 -90
2 -2 48 27 103 64 89 61 109 81 203 203 80 104 99 135 86 137 -17 4 -40 -12
-40 -27 0 -4 -10 -21 -23 -37 -12 -16 -29 -38 -36 -49 -13 -19 -14 -18 -20 15
-21 137 -20 133 -46 135 -14 1 -28 -3 -32 -9 -5 -8 -8 -7 -8 2 0 15 -122 17
-149 2 -30 -15 -46 8 -76 107 -29 97 -68 153 -107 153 -11 0 -16 4 -12 11 11
18 -18 60 -52 74 -17 7 -62 18 -101 24 -38 7 -81 18 -96 26 -16 8 -29 9 -35 3
-6 -6 -17 26 -31 87 -21 90 -22 99 -7 148 8 29 15 59 14 67 0 8 6 29 13 46 12
30 10 37 -34 114 -26 45 -44 86 -41 91 3 5 1 9 -4 9 -5 0 -9 7 -9 15 0 9 10
15 26 15 14 0 37 9 51 20 l25 20 -29 0 c-16 0 -26 3 -23 7 4 3 2 12 -4 19 -6
8 -8 21 -5 30 4 11 -17 51 -60 115 l-66 99 86 96 c47 53 83 100 80 105 -6 10
-53 170 -54 181 0 4 25 15 55 24 30 10 55 20 55 23 0 3 -14 14 -31 24 -46 26
-232 23 -318 -6z m64 -875 c3 -15 -1 -47 -10 -71 -16 -45 -14 -52 18 -88 10
-12 17 -27 15 -33 -2 -6 -25 12 -52 39 l-49 50 28 65 c15 36 31 66 36 66 4 0
10 -13 14 -28z"/>
<path d="M3052 5729 c2 -8 33 -21 69 -31 91 -23 104 -21 34 6 -97 37 -108 40
-103 25z"/>
<path d="M3910 4634 c-36 -20 -68 -39 -73 -43 -8 -8 12 -121 23 -121 12 0 140
168 140 184 0 23 -17 19 -90 -20z"/>
<path d="M3702 4155 c4 -5 3 -13 -2 -20 -7 -8 -4 -11 10 -10 31 2 34 12 8 26
-12 6 -20 8 -16 4z"/>
</g>
</svg>
